<?xml version="1.0" encoding="UTF-8" standalone="no"?>
<svg
   viewBox="0 0 90 90"
   width="90"
   height="90"
   version="1.1"
   id="svg9"
   sodipodi:docname="steam.svg"
   inkscape:version="1.3.2 (091e20e, 2023-11-25, custom)"
   xmlns:inkscape="http://www.inkscape.org/namespaces/inkscape"
   xmlns:sodipodi="http://sodipodi.sourceforge.net/DTD/sodipodi-0.dtd"
   xmlns="http://www.w3.org/2000/svg"
   xmlns:svg="http://www.w3.org/2000/svg">
  <defs
     id="defs9" />
  <sodipodi:namedview
     id="namedview9"
     pagecolor="#ffffff"
     bordercolor="#000000"
     borderopacity="0.25"
     inkscape:showpageshadow="2"
     inkscape:pageopacity="0.0"
     inkscape:pagecheckerboard="true"
     inkscape:deskcolor="#d1d1d1"
     inkscape:zoom="3.919352"
     inkscape:cx="76.798409"
     inkscape:cy="45.288098"
     inkscape:window-width="1680"
     inkscape:window-height="961"
     inkscape:window-x="-9"
     inkscape:window-y="-9"
     inkscape:window-maximized="1"
     inkscape:current-layer="svg9" />
  <path
     d="M 45.084,1 C 21.846,1 2.809,18.918 1,41.689 l 23.71,9.803 c 2.009,-1.374 4.436,-2.179 7.047,-2.179 0.234,0 0.467,0.01 0.698,0.021 L 42.999,34.051 c 0,-0.073 0,-0.144 0,-0.216 0,-9.199 7.483,-16.683 16.683,-16.683 9.199,0 16.682,7.484 16.682,16.683 0,9.199 -7.483,16.684 -16.682,16.684 -0.127,0 -0.253,0 -0.379,-0.01 l -15.038,10.73 c 0.01,0.195 0.015,0.394 0.015,0.592 0,6.906 -5.617,12.522 -12.522,12.522 -6.061,0 -11.129,-4.326 -12.277,-10.055 L 2.524,57.292 c 5.25,18.568 22.309,32.181 42.56,32.181 24.432,0 44.237,-19.806 44.237,-44.235 C 89.321,20.805 69.515,1 45.084,1"
     id="path1"
     style="fill:#a2cbfc;fill-opacity:1" />
  <path
     d="m 28.721,68.122 -5.434,-2.245 c 0.963,2.005 2.629,3.684 4.841,4.606 4.782,1.992 10.295,-0.277 12.288,-5.063 0.965,-2.314 0.971,-4.869 0.014,-7.189 C 39.475,55.91 37.673,54.1 35.356,53.134 33.057,52.177 30.594,52.212 28.43,53.029 l 5.613,2.321 c 3.527,1.47 5.195,5.52 3.725,9.047 -1.467,3.528 -5.52,5.196 -9.047,3.725"
     id="path2"
     style="fill:#a2cbfc;fill-opacity:1.0" />
  <path
     d="m 70.796,33.835 c 0,-6.129 -4.986,-11.116 -11.116,-11.116 -6.129,0 -11.116,4.987 -11.116,11.116 0,6.13 4.987,11.115 11.116,11.115 6.13,0 11.116,-4.986 11.116,-11.115 M 51.348,33.816 c 0,-4.612 3.739,-8.35 8.351,-8.35 4.612,0 8.351,3.738 8.351,8.35 0,4.612 -3.739,8.35 -8.351,8.35 -4.612,0 -8.351,-3.739 -8.351,-8.35"
     id="path3"
     style="fill:#a2cbfc;fill-opacity:1.0" />
</svg>
